<svg width="198" height="224" xmlns="http://www.w3.org/2000/svg" xmlns:svg="http://www.w3.org/2000/svg">
 <title>LoggerMachine</title>
 <g transform="scale(1) translate(4, 220)" class="graph" id="graph1">
  <title>_anonymous_0</title>
  <!-- Created -->
  <g class="node" id="node1">
   <title>Created</title>
   <ellipse id="svg_2" ry="18" rx="41.0958" cy="-198" cx="95" stroke="black" fill="none"/>
   <text id="svg_3" font-size="14" font-family="Times,serif" y="-193.8" x="95" text-anchor="middle">Created</text>
  </g>
  <!-- Ready -->
  <g class="node" id="node3">
   <title>Ready</title>
   <ellipse id="svg_4" ry="18" rx="35.5598" cy="-108" cx="95" stroke="black" fill="none"/>
   <text id="svg_5" font-size="14" font-family="Times,serif" y="-103.8" x="95" text-anchor="middle">Ready</text>
  </g>
  <!-- Created&#45;&gt;Ready -->
  <g class="edge" id="edge2">
   <title>Created-&gt;Ready</title>
   <path id="svg_6" d="m95,-179.613998c0,12.373993 0,29.244995 0,43.393997" stroke="black" fill="none"/>
   <polygon id="svg_7" points="98.8165054321289,-136.9992218017578 95.31640625,-126.99922180175781 91.8165054321289,-136.9992218017578 98.8165054321289,-136.9992218017578 " stroke="black" fill="black"/>
   <text fill="black" id="svg_8" font-size="14" font-family="Times,serif" y="-148.8" x="111.222344" text-anchor="middle">log</text>
  </g>
  <!-- Ready&#45;&gt;Ready -->
  <g class="edge" id="edge4">
   <title>Ready-&gt;Ready</title>
   <path id="svg_9" d="m126.557999,-116.232002c11.761002,-0.269997 21.442001,2.473999 21.442001,8.232002c0,3.958 -4.576004,6.491997 -11.257004,7.601997" stroke="black" fill="none"/>
   <polygon id="svg_10" points="138.6534423828125,-96.89219665527344 128.45643615722656,-99.76809692382812 138.221435546875,-103.87899780273438 138.6534423828125,-96.89219665527344 " stroke="black" fill="black"/>
   <text fill="black" id="svg_11" font-size="14" font-family="Times,serif" y="-102.850781" x="164.222344" text-anchor="middle">log</text>
  </g>
  <!-- Logs the payload as a message. -->
  <g class="node" id="node6">
   <title>Logs the payload as a message.</title>
   <polygon id="svg_12" points="190.291,-36 -0.290533,-36 -0.290533,0 190.291,0 190.291,-36" stroke="black" fill="none"/>
   <text id="svg_13" font-size="14" font-family="Times,serif" y="-13.8" x="95" text-anchor="middle">Logs the payload as a message.</text>
  </g>
  <!-- Ready&#45;&gt;Logs the payload as a message. -->
  <g class="edge" id="edge6">
   <title>Ready-&gt;Logs the payload as a message.</title>
   <path id="svg_14" d="m95,-89.613998c0,12.373695 0,29.245399 0,43.394199" stroke-dasharray="1,5" stroke="black" fill="none"/>
   <polygon id="svg_15" points="98.8165054321289,-47.31602478027344 95.31640625,-37.31602478027344 91.8165054321289,-47.31602478027344 98.8165054321289,-47.31602478027344 " stroke="black" fill="black"/>
   <text fill="black" id="svg_16" font-size="14" font-family="Times,serif" y="-58.8" x="127.183125" text-anchor="middle">On Entry</text>
  </g>
 </g>

</svg>
