<?xml version="1.0" encoding="UTF-8" standalone="no"?>
<svg
   xmlns:dc="http://purl.org/dc/elements/1.1/"
   xmlns:cc="http://creativecommons.org/ns#"
   xmlns:rdf="http://www.w3.org/1999/02/22-rdf-syntax-ns#"
   xmlns:svg="http://www.w3.org/2000/svg"
   xmlns="http://www.w3.org/2000/svg"
   xmlns:sodipodi="http://sodipodi.sourceforge.net/DTD/sodipodi-0.dtd"
   xmlns:inkscape="http://www.inkscape.org/namespaces/inkscape"
   id="Layer_1"
   viewBox="0 0 800 272.1"
   version="1.1"
   sodipodi:docname="Discord-REstate.svg"
   inkscape:version="0.92.3 (2405546, 2018-03-11)">
  <metadata
     id="metadata13">
    <rdf:RDF>
      <cc:Work
         rdf:about="">
        <dc:format>image/svg+xml</dc:format>
        <dc:type
           rdf:resource="http://purl.org/dc/dcmitype/StillImage" />
        <dc:title></dc:title>
      </cc:Work>
    </rdf:RDF>
  </metadata>
  <defs
     id="defs11" />
  <sodipodi:namedview
     pagecolor="#ffffff"
     bordercolor="#666666"
     borderopacity="1"
     objecttolerance="10"
     gridtolerance="10"
     guidetolerance="10"
     inkscape:pageopacity="0"
     inkscape:pageshadow="2"
     inkscape:window-width="1920"
     inkscape:window-height="1017"
     id="namedview9"
     showgrid="false"
     inkscape:zoom="0.5"
     inkscape:cx="-74.511401"
     inkscape:cy="473.3322"
     inkscape:window-x="1912"
     inkscape:window-y="-8"
     inkscape:window-maximized="1"
     inkscape:current-layer="Layer_1" />
  <style
     id="style2">.st0{fill:#7289DA;}</style>
  <path
     class="st0"
     d="M142.8 120.1c-5.7 0-10.2 4.9-10.2 11s4.6 11 10.2 11c5.7 0 10.2-4.9 10.2-11s-4.6-11-10.2-11zM106.3 120.1c-5.7 0-10.2 4.9-10.2 11s4.6 11 10.2 11c5.7 0 10.2-4.9 10.2-11 .1-6.1-4.5-11-10.2-11z"
     id="path4" />
  <path
     class="st0"
     d="m 191.4,36.9 h -134 c -11.3,0 -20.5,9.2 -20.5,20.5 v 134 c 0,11.3 9.2,20.5 20.5,20.5 h 113.4 l -5.3,-18.3 12.8,11.8 12.1,11.1 21.6,18.7 V 57.4 C 211.9,46.1 202.7,36.9 191.4,36.9 Z M 303.8,79.7 H 270.6 V 117 l 22.1,19.9 v -36.2 h 11.8 c 7.5,0 11.2,3.6 11.2,9.4 v 27.7 c 0,5.8 -3.5,9.7 -11.2,9.7 h -34 v 21.1 h 33.2 c 17.8,0.1 34.5,-8.8 34.5,-29.2 V 109.6 C 338.3,88.8 321.6,79.7 303.8,79.7 Z m 174,59.7 v -30.6 c 0,-11 19.8,-13.5 25.8,-2.5 l 18.3,-7.4 c -7.2,-15.8 -20.3,-20.4 -31.2,-20.4 -17.8,0 -35.4,10.3 -35.4,30.3 v 30.6 c 0,20.2 17.6,30.3 35,30.3 11.2,0 24.6,-5.5 32,-19.9 l -19.6,-9 c -4.8,12.3 -24.9,9.3 -24.9,-1.4 z M 417.3,113 c -6.9,-1.5 -11.5,-4 -11.8,-8.3 0.4,-10.3 16.3,-10.7 25.6,-0.8 l 14.7,-11.3 c -9.2,-11.2 -19.6,-14.2 -30.3,-14.2 -16.3,0 -32.1,9.2 -32.1,26.6 0,16.9 13,26 27.3,28.2 7.3,1 15.4,3.9 15.2,8.9 -0.6,9.5 -20.2,9 -29.1,-1.8 l -14.2,13.3 c 8.3,10.7 19.6,16.1 30.2,16.1 16.3,0 34.4,-9.4 35.1,-26.6 1,-21.7 -14.8,-27.2 -30.6,-30.1 z m -67,55.5 h 22.4 V 79.7 H 350.3 Z M 728,79.7 H 694.8 V 117 l 22.1,19.9 v -36.2 h 11.8 c 7.5,0 11.2,3.6 11.2,9.4 v 27.7 c 0,5.8 -3.5,9.7 -11.2,9.7 h -34 v 21.1 H 728 c 17.8,0.1 34.5,-8.8 34.5,-29.2 V 109.6 C 762.5,88.8 745.8,79.7 728,79.7 Z M 565.1,78.5 c -18.4,0 -36.7,10 -36.7,30.5 v 30.3 c 0,20.3 18.4,30.5 36.9,30.5 18.4,0 36.7,-10.2 36.7,-30.5 V 109 C 602,88.6 583.5,78.5 565.1,78.5 Z m 14.4,60.8 c 0,6.4 -7.2,9.7 -14.3,9.7 -7.2,0 -14.4,-3.1 -14.4,-9.7 V 109 c 0,-6.5 7,-10 14,-10 7.3,0 14.7,3.1 14.7,10 z M 682.4,109 c -0.5,-20.8 -14.7,-29.2 -33,-29.2 h -35.5 v 88.8 h 22.7 v -28.2 h 4 l 20.6,28.2 h 28 L 665,138.1 c 10.7,-3.4 17.4,-12.7 17.4,-29.1 z m -32.6,12 h -13.2 v -20.3 h 13.2 c 14.1,0 14.1,20.3 0,20.3 z"
     id="path6"
     inkscape:connector-curvature="0"
     style="fill:#7289da"
     sodipodi:nodetypes="sssssccccccssccccsssscccscsssccssssccsccccssccccscccccccsccccsssscccssssssssssssssssscscccccccccsccss" />
  <g
     id="g3787"
     transform="translate(53.479492,53.028203)">
    <title
       id="title3784">background</title>
    <rect
       style="fill:none"
       id="canvas_background"
       height="402"
       width="582"
       y="-1"
       x="-1" />
  </g>
  <g
     id="g3793"
     transform="matrix(1.101407,0,0,1.101407,51.655817,54.511726)"
     style="opacity:1;fill:#f9f9f9">
    <title
       id="title3789">Hand</title>
    <path
       transform="rotate(30,68,64)"
       inkscape:connector-curvature="0"
       id="svg_2"
       d="m 88,32 v 24 h 6 v 6.099998 l -5.699997,4.599998 -6.600006,-6.699997 H 78 v -8 h 6 v -36 H 72 v -8 H 52 v 8 H 40 v 8 H 28 v 28 h 6 v 8 h -6 v 36 h 4 V 108 h 8 v 12 h 40 v -12 h 8 V 95.999999 h 4 V 73.900001 l 10,-8 v -9.900002 h 6 v -24 z M 72,24 h 4 v 20 h -4 z m -6,28 h 4 v 8 H 66 Z M 60,16 h 4 v 28 h -4 z m -6,36 h 4 v 8 H 54 Z M 48,24 h 4 v 20 h -4 z m -6,28 h 4 v 8 H 42 Z M 36,32 h 4 v 12 h -4 z m 36,80 H 48 v -4 h 24 z m 8,-12 H 40 V 96 H 80 Z M 84,88 H 36 V 68 H 78.300003 L 84,73.699997 Z m 16,-40 h -4 v -8 h 4 z"
       style="fill:#f9f9f9" />
    <rect
       id="svg_3"
       y="60.507587"
       x="35.147648"
       width="8"
       height="8"
       style="fill:#f9f9f9" />
  </g>
</svg>
