<svg width="128" height="128" xmlns="http://www.w3.org/2000/svg">

 <g>
  <title>background</title>
  <rect fill="none" id="canvas_background" height="402" width="582" y="-1" x="-1"/>
 </g>
 <g>
  <title>Hand</title>
  <path transform="rotate(30, 68, 64)" id="svg_2" d="m88,32l0,24l6,0l0,6.099998l-5.699997,4.599998l-6.600006,-6.699997l-3.699997,0l0,-8l6,0l0,-36l-12,0l0,-8l-20,0l0,8l-12,0l0,8l-12,0l0,28l6,0l0,8l-6,0l0,36l4,0l0,12l8,0l0,12l40,0l0,-12l8,0l0,-12l4,0l0,-22.099998l10,-8l0,-9.900002l6,0l0,-24l-20,0zm-16,-8l4,0l0,20l-4,0l0,-20zm-6,28l4,0l0,8l-4,0l0,-8zm-6,-36l4,0l0,28l-4,0l0,-28zm-6,36l4,0l0,8l-4,0l0,-8zm-6,-28l4,0l0,20l-4,0l0,-20zm-6,28l4,0l0,8l-4,0l0,-8zm-6,-20l4,0l0,12l-4,0l0,-12zm36,80l-24,0l0,-4l24,0l0,4zm8,-12l-40,0l0,-4l40,0l0,4zm4,-12l-48,0l0,-20l42.300003,0l5.699997,5.699997l0,14.300003zm16,-40l-4,0l0,-8l4,0l0,8z"/>
  <rect id="svg_3" y="60.507588" x="35.147646" width="8" height="8"/>
 </g>
</svg>
